<svg id="Layer_1" data-name="Layer 1" xmlns="http://www.w3.org/2000/svg" viewBox="0 0 2000 538.46"><defs><style>.cls-1{fill:#231f20}</style></defs><path class="cls-1" d="M898.74 64.31c11.7-3 25.23 3.46 29.88 14.7 3 7.58 1.79 16.86-3.65 23.07-7.89 9.5-23.29 12.79-33.55 5.19-11.46-7.22-13.62-24.7-5.08-34.95a25.89 25.89 0 0 1 12.4-8.01Zm737.72 5.02c12.64-4 26.2-3.66 39.19-1.76-.18 8.79-.3 17.58-.57 26.36-7.28 1.33-14.62 2.37-21.77 4.3-3.89 1.07-6.6 4.61-7.83 8.3-2 5.83-1.63 12.09-2.91 18 17.31.23 34.61.83 51.93.44 3.48-13.13 6.54-26.39 10.56-39.38 9.35-.39 18.71-.42 28.07-.58q.16 19.85.16 39.68c11.17 0 22.34 0 33.53.1v28c-11.19.1-22.37.05-33.54.1 2 26.16-4.41 53.16 3.9 78.66 6.06-1.37 12.1-2.89 18.21-4 5.19 8 10.5 15.95 15.56 24-14.06 7.68-30.29 13-46.45 10.58-7.58-1.27-15.28-3.92-20.9-9.33a36.11 36.11 0 0 1-10.6-24.45c-.74-25 0-50.07-.27-75.1h-47.8c.12 35.73 0 71.46.07 107.19q-20.58-.09-41.16 0v-107l-18.48-5.93c-.29-7.39-.47-14.77-.58-22.17h18.65c.36-10.19 1.05-20.6 4.74-30.19 4.57-12.55 15.77-21.86 28.29-25.82Zm-995.99.42c15-.1 30-.06 45 .76 21.1 40.73 42.29 81.43 61.66 123 19.47-41.42 40.87-81.92 61.65-122.73 15.13-1.42 30.35-1.14 45.53-1.06v190.51c-12.94.1-25.89.14-38.84.19.13-42-.25-84.05.2-126.09-15.74 32.08-32.48 63.65-48.76 95.45-6.29 14.72-29.66 15.47-38.1 2.42-16.57-33-34.16-65.42-50.12-98.7.75 42.29.15 84.59.36 126.9l-38.49-.08c-.09-63.52.06-127.04-.09-190.57ZM971 136.37c27.31-21 69.59-17.86 94.2 6a165 165 0 0 1-18.92 21.12c-8-3.77-15.65-8.56-24.41-10.26-9.35-1.83-20.09 1.42-25.65 9.46s-7.12 17.79-7.52 27.21c-.25 10.49 1.16 21.52 6.81 30.58 5.53 8.9 16.95 14.58 27.31 11.65 8.54-2.35 15.52-8 23-12.53 8.45 4.84 14.57 12.6 20.46 20.14-22.17 23.25-60.47 30.65-88.69 14.33-10.93-5.94-18.68-16.29-23.75-27.42a83.72 83.72 0 0 1-2.31-62.13c3.87-10.83 10.03-21.22 19.47-28.15Zm169.94-12.58c8.45-3.4 17.57-.67 26.11.84q-1 18.27-3.58 36.43c-8.58.49-17.31-1.4-25.77.7-8.28 2.13-15.27 9.49-15.71 18.23-.4 26.77.07 53.56-.13 80.33q-20.41.09-40.83 0-.06-67.83 0-135.63c11.13-.15 22.28.23 33.4 1q2.25 9.09 4.32 18.2c6.66-7.4 12.63-16.24 22.19-20.1Zm86.36-.31c21.68-3.82 45.47 1.56 62 16.48 9.16 8.07 14.69 19.43 17.71 31.1 5.21 20.06 3.35 42.38-7.12 60.48a57.37 57.37 0 0 1-24.39 23.16c-28 14.34-65.73 10-87.68-13.31-16.29-19.4-20.77-47.17-13.93-71.26 3.44-11.81 9.37-23.33 18.88-31.37 9.71-8.33 22.01-13.16 34.53-15.28Zm7 30.24a26.49 26.49 0 0 0-17.22 14.83c-5 11.26-4.59 24-3 36 1 5.86 1.31 12.22 5 17.2 8.55 12.2 28.27 14.12 39 3.73 4.75-4.66 6.84-11.3 8.33-17.61 2.41-11.84 1.17-24.08-1.06-35.86-2.89-13.24-17.94-22.65-31.02-18.29Zm105.91-20.52a70.13 70.13 0 0 1 49.46-9.86A75.1 75.1 0 0 1 1425.9 140c-4.87 6.91-9.79 13.79-15 20.47-10.65-2.93-20.73-8.34-31.92-8.93-3.71-.07-7.87-.16-10.87 2.37-3.69 3.05-4.52 8.05-5.54 12.46 15 9.09 32.49 13 47.86 21.4a30.48 30.48 0 0 1 13.85 17.44c4.35 13.93.66 29.9-8.81 40.91-6.23 7.35-15.47 11.15-24.47 13.87-24.26 6.81-50.87.62-71.42-13.39 4.31-5.58 6.62-12.54 11.64-17.59 3.11-3.15 8.18-5.12 12.39-3 9.71 3.66 19.13 9.83 29.92 9 3.58-.62 7.93-.43 10.49-3.49 3.06-3.69 3.28-8.74 4-13.27-14.55-8-30.74-12.23-45.57-19.6-9.13-4.69-15.26-14-17.15-24-2.96-15.02 2.16-32.29 14.91-41.45Zm154.79-9.77c17.33-2.93 35.79-.3 51.13 8.47a56.63 56.63 0 0 1 23.56 24.85c9.74 20.47 10.89 45.05 2.38 66.13-4 9.69-10 18.88-18.41 25.25-27 20.91-69 19.67-94.37-3.32-10.71-9.43-16.43-23.23-19.11-37-3.49-19.09-.41-39.58 9.6-56.32 9.71-15.69 27.3-25.09 45.22-28.06Zm6.2 30.31c-7.07 2.29-12.78 7.89-16 14.52-4.25 8.93-4.78 19.12-4 28.83a109.41 109.41 0 0 0 3.59 20.43c6.59 17.21 33.82 20.29 44 4.95 8.81-16.64 8.42-36.83 2.86-54.45-4.03-12.02-18.75-17.94-30.47-14.28Zm-615.9-29.02q20.25.07 40.52 0V260.4c-13.51 0-27-.06-40.52 0Zm-10.01 212.49h13.9c0 15.12.07 30.23-.26 45.35 7.85-6 16.71-13.08 27.28-11.47 11.45.17 21.94 9.63 23.1 21.06 1.38 19.34.27 38.74.66 58.1l-14.1.05c-.13-17.89.4-35.78-.22-53.67A16.16 16.16 0 0 0 918 384c-3.54-2.12-7.92-2-11.84-1.32-6.75 1.58-11.79 6.62-17.15 10.67.31 19 .16 38.05.16 57.07-4.65-.05-9.32-.08-14-.15.12-37.67-.05-75.37.12-113.06Zm221.1 113.08c.13-37.66 0-75.32.07-113l13.71-.07c-.08 37.68.15 75.36-.13 113.05-4.55.04-9.1.02-13.65.02Zm123.17-112.88c4.72-.06 9.43-.08 14.16-.14 0 15.05.12 30.11-.24 45.16 7.43-6.74 17.18-11.37 27.35-11.23a23.88 23.88 0 0 1 19.3 9.91c9.51 14.11 10.92 32.92 4.8 48.65-2.81 6.93-7 13.81-13.69 17.56-11.69 6.9-29 5.83-37.51-5.58-.17 2.88-.73 6.17-3.34 7.86-3.25 2-7.27 1.34-10.85.91q.32-56.51.02-113.1Zm30 45.51c-6 1.68-12.33 5-14.54 11.25-3.67 10-.61 20.8-1.16 31.16a12.59 12.59 0 0 0 3.94 10.53c4.49 4.1 11 5.25 16.87 4.53 5.24-.66 10.7-3.08 13.51-7.77 6.68-10.89 7.39-24.74 3.43-36.72-1.11-3.16-2.2-6.51-4.7-8.87-4.51-4.38-11.4-5.5-17.36-4.11Zm-225.49-42.02c18.44-5.13 39-.46 54 11.32-2.4 3.41-4.77 6.84-7.15 10.26-9.87-4.75-19.76-11.59-31.25-10.59-19.24.24-36.43 16.69-38.11 35.74-2.12 13.77 1.27 28.7 10.58 39.29 7.48 8.64 19.43 12.78 30.7 11.65 10.16-1.09 19.45-6 27.77-11.67q3.89 4.47 7.79 8.92c-17.26 16.83-45.61 21.09-66.84 9.48-11.93-6.3-19.85-18.42-23.56-31.12-4.76-16.31-3.11-34.63 5.4-49.43a51.22 51.22 0 0 1 30.67-23.85Zm-383.92-.54h86c-.06 4.21-.08 8.42-.16 12.64h-34.83c0 32.46.14 64.9-.11 97.35h-15.28c.1-32.45 0-64.89.09-97.34h-35.65c-.02-4.22-.05-8.44-.06-12.65Zm795.09 5.96c18.1-11.31 42.3-7 58.75 5.39-3.47 5.59-6.94 11.19-10.36 16.82-8.5-2.88-16.66-7.66-25.85-7.74a15.55 15.55 0 0 0-12.52 6.36c.43 3.51.82 7 1.21 10.55 12.92 7.73 29.19 8.92 40.62 19.27 4.21 3.4 6.14 8.72 7.17 13.88a38 38 0 0 1-12.78 35.42c-6.09 5.18-14.15 7.25-21.93 8.1-16 1.41-31.67-5-44.29-14.41 4.08-5.65 8-11.45 12.4-16.83 8.76 3.64 17 9.13 26.58 10.31a15 15 0 0 0 14.37-6.43c.83-4 1.19-8.05 1.84-12.06-9.61-4.62-19.8-7.87-29.61-12-4.56-2.05-9.53-3.77-12.86-7.7-12.78-14.01-8.91-39.18 7.26-48.93Zm181.53.74c23.15-12.11 52.65-8.35 73.44 6.94-3.68 5.75-7.64 11.32-11.44 17-9.78-3.18-19.06-8.31-29.44-9.34a30.1 30.1 0 0 0-19.36 4.9c-7.49 4.93-12.11 13.33-13.81 22-2.61 13.23.61 28.34 10.78 37.69a29.39 29.39 0 0 0 20.63 7.65c5.62-.19 11.16-1.34 16.75-1.92.69-5.65.31-11.64.6-17.43-5.14-.31-10.27-.63-15.41-.92q-.51-9.28-1.08-18.56h40.17c0 16.07-.07 32.14 0 48.21a74.05 74.05 0 0 1-55.4 9.45c-13.16-3.08-25.66-10.31-33.82-21.23-11.25-15.29-13.64-36.11-7.86-54 4.08-12.9 13.08-24.34 25.25-30.44Zm94.29 3.03c5.24-5.31 12.51-8 19.7-9.46 15.78-2.87 32.21 2.33 44.84 11.85v2.66q-6.12 6.36-12 12.85c-8.89-3.09-17.85-7.57-27.51-6.82-5.57.36-9.85 5.24-10.52 10.6a17.44 17.44 0 0 0 2.07 5.57c12.71 7.22 27.64 10.12 39.44 19 3 2.12 5.35 4.95 8 7.46.15.31.42 1 .56 1.26v16.2c-1 15.37-13.19 29-28.24 32.06a52.8 52.8 0 0 1-24.65-.36c-9.74-2.49-18.62-7.43-26.91-13 4.51-5.64 9-11.28 13.52-17 8.25 4.86 17.14 9.45 26.85 10.16 5.55.53 11.62-2.06 13.93-7.39.79-2.19 2.64-5 .86-7.11-4.7-7.37-13.37-10.41-21.3-12.94-8.29-2.69-17.44-5.49-22.79-12.88-9.21-12.7-6.81-31.74 4.15-42.71Zm-372.9-8.74c24 0 48 0 72.08-.06q-.09 10.15-.06 20.3c-15.2-.14-30.38-.1-45.57-.08v27.72q18.82.19 37.66.12-.11 10.26-.14 20.52c-12.51-.05-25 0-37.54 0v43.16h-26.48q.11-55.86.05-111.68Zm171.55 0H1582c-.08 6.72-.14 13.42-.17 20.14q-22.83-.09-45.67 0v25.47q17.28 0 34.56-.06v19.82c-11.57 0-23.16-.16-34.74.12.18 8.71.09 17.42.18 26.12h45.31v20q-35.89-.09-71.76 0 .03-55.78 0-111.61ZM810 380c10.69-9.48 27.07-11.64 40-5.83 3.3 1.39 7.07 2.69 9.1 5.87 1.79 3-.1 6.31-1.85 8.78-8.13-3.09-16.45-6.86-25.34-6.3a18 18 0 0 0-14.56 9.28c-6.1 10.62-7 24.32-1.87 35.49 3.51 7.74 11.48 13.4 20 13.52 6.82-.44 12.1-5.71 18.79-6.62 3.41-.54 6.49 1.47 8.7 3.87-9.72 11-25.75 16.23-40 12.32a30.47 30.47 0 0 1-16.23-10.73c-8.3-10.43-10.37-24.73-8-37.59 1.73-8.12 4.87-16.44 11.26-22.06Zm-84.64 5c11.7-16.73 39.29-19 53.08-3.7 7.45 8.08 7.75 19.71 8.57 30-18.64.7-37.3.3-56 .61 1.39 9.59 4.38 20.48 13.24 25.81 5.43 2.71 12.07 4 17.91 1.8 5.36-1.71 10.3-4.94 16-5.3 3.62-.25 6.83 1.87 9.1 4.5a46.61 46.61 0 0 1-39.11 12.33 36.09 36.09 0 0 1-19.85-9.94c-12.78-15.37-14.3-39.4-2.94-56.11Zm19-1.61c-7.43 3.75-10 12.25-13.23 19.31 14.67 0 29.36.39 44-.41-1.1-8.33-6.1-16.57-14.06-19.88-5.34-2.29-11.44-.99-16.69 1ZM1132 372.57h14.07c.53 19.42-1.73 39 1.39 58.28 1.6 5.56 7.28 9.37 13 9.48 8.43.19 16.42-3.94 22.56-9.48v-58.27h13.74c0 25.95-.06 51.9 0 77.85-6.15 3.64-13.2-2.85-14-9-8.34 8-20.71 11.87-32.06 9.42-8.09-1.71-15.33-8.18-16.8-16.47-4.18-20.38-.78-41.21-1.9-61.81Z"/><path style="stroke-width:.01px;stroke:#fff;stroke-miterlimit:10;fill:#231f20" d="m381.99 252.41-28.93 1.02.3-93.54 28.85-2.8-.22 95.32zm96.43-3.43-32.61 1.16.07-146.28 32.46-4.1.08 149.22zm-49.67 1.77-30.69 1.09.22-118.93 30.59-3.41-.12 121.25z"/><path d="m302.56 91-1 202.43 10.45-.1.85-191.19 215.88-29.92.42 204.36-179.6 3.26q0 6.57-.13 13.14l193.71-1.84-.58-235.46Z" style="stroke-width:.02px;stroke:#fff;stroke-miterlimit:10;fill:#231f20"/><path class="cls-1" d="m325.58 287.01 24.4 16.71.11-34.08-24.51 17.37zM137.25 161.24Q211.64 152 286 142.88c.07 53.59-.13 107.19.11 160.78-49.63-.1-99.25.07-148.88 0Zm56 156.81H286q-.06 48 0 96.11c-30.92-3.85-61.81-8-92.73-11.87q-.03-42.12-.02-84.24Zm107.75.25c59-.5 118-.26 177-.13q.06 88.95 0 177.9h-3.4c-57.77-8.19-115.69-15.67-173.6-23.53V318.3Z"/></svg>