<svg id="BACKGROUND" xmlns="http://www.w3.org/2000/svg" viewBox="0 0 396.39 193.55"><defs><style>.cls-1{fill:#fff;}.cls-2{fill:#d63e1a;}.cls-3{fill:#eebc53;}.cls-4{fill:#69a050;}</style></defs><path class="cls-1" d="M347.24,90.51a23.8,23.8,0,0,0-4.42-6.58A20.53,20.53,0,0,0,337,79.62,14.7,14.7,0,0,0,330.57,78a21.53,21.53,0,0,0-5.74.75c-1.33.37-2.57.75-3.72,1.11l-3.29,1a6.35,6.35,0,0,1-1.91.26,3.36,3.36,0,0,1-1.4-.31,5.78,5.78,0,0,1-2.79-2.64,2.35,2.35,0,0,1-.25-.89,5.72,5.72,0,0,1,1.9-.28,29.76,29.76,0,0,0,5.24-.46,15.58,15.58,0,0,0,6.07-2.45,14,14,0,0,0,4.57-5.19,16.47,16.47,0,0,0,1.65-7.63,11.65,11.65,0,0,0-5-10l1.13,0a17.15,17.15,0,0,0,9.58-2.56c2.33-1.53,5.1-4.67,5.1-10.93A30,30,0,0,0,340,28.41c-.94-2.8-1.89-5.39-2.83-7.7l-.07-.15a18.58,18.58,0,0,0-6.18-8A17.07,17.07,0,0,0,321,9.8a27.87,27.87,0,0,0-9.08,1.6,15.78,15.78,0,0,1-5.13.94,17.12,17.12,0,0,1-2.72-.23L300,11.5c-1.44-.2-3.07-.41-5-.62a64.53,64.53,0,0,0-6.94-.34,29.47,29.47,0,0,0-5.44.56A19.25,19.25,0,0,0,276,13.69a17,17,0,0,0-5.72,6.09A19.94,19.94,0,0,0,268,29.72a43.81,43.81,0,0,0,.41,6c-.74-.84-1.5-1.68-2.27-2.52a90.65,90.65,0,0,0-11.54-10.58,62.63,62.63,0,0,0-13.56-7.93,40.66,40.66,0,0,0-16-3.25,36.29,36.29,0,0,0-14.06,3A57.67,57.67,0,0,0,199.23,21a13.63,13.63,0,0,0-4.14,4.83,55,55,0,0,0-10.66-10.68,34.3,34.3,0,0,0-21.11-7,35.72,35.72,0,0,0-14.72,3.07,45.63,45.63,0,0,0-12,7.83,54,54,0,0,0-9.35,11.19c-1,1.55-1.9,3.14-2.77,4.76a26.35,26.35,0,0,0-2.19-6.33,27.78,27.78,0,0,0-7.72-9.44,34,34,0,0,0-11.52-5.75,50.55,50.55,0,0,0-14.17-1.89,49.58,49.58,0,0,0-19.73,3.78A40.85,40.85,0,0,0,54,26.58,49.8,49.8,0,0,0,44.74,44a75,75,0,0,0-3.11,22.36A145.32,145.32,0,0,0,44,94.52c1.65,8.2,4.36,15.06,8,20.4A34.23,34.23,0,0,0,67.32,127.3a55.08,55.08,0,0,0,21,3.67,39.85,39.85,0,0,0,16.8-3.77c.72-.34,1.44-.69,2.16-1.06a8.81,8.81,0,0,0,6.89.72,7,7,0,0,1,1-.2,6.33,6.33,0,0,1,.45,2.17,29.22,29.22,0,0,1,0,4.67c-.15,1.73-.37,3.48-.66,5.18-.13.72-.25,1.4-.37,2l-.22.12c-1.13.59-2.39,1.28-3.79,2s-2.74,1.49-4.18,2.26-3.05,1.67-4.54,2.55a7.72,7.72,0,0,0-3.56,8.88,13.2,13.2,0,0,0,2.8,5.19,15,15,0,0,0,4.49,3.58,10.45,10.45,0,0,0,1.65.68l-2.32,6.1a8.61,8.61,0,0,0,1.8,9,12.72,12.72,0,0,0,5.44,3.48,13.66,13.66,0,0,0,6.24.59,8.68,8.68,0,0,0,7.13-5.62l9.72-25.52a59,59,0,0,1,6.68-2.47c1-.3,1.86-.5,2.49-.63q-.39,1.42-.69,2.79a38.12,38.12,0,0,0-1,6.19,9.91,9.91,0,0,0,2.19,6.88,13.25,13.25,0,0,0,4.44,3.57,15.42,15.42,0,0,0,5.1,1.52,12.14,12.14,0,0,0,5.8-.66l.2-.08a16.1,16.1,0,0,0,4.35-2.89,23.37,23.37,0,0,0,2.95,2.45,23.84,23.84,0,0,0,4.09,2.32,17.25,17.25,0,0,0,5,1.39,11.24,11.24,0,0,0,6.66-1.25l.11-.06.06,0a11.18,11.18,0,0,0,2.24,5.46,12.24,12.24,0,0,0,5.45,3.93,19.54,19.54,0,0,0,5.61,1.2,22.15,22.15,0,0,0,5.88-.39,19.19,19.19,0,0,0,5.69-2.06,32,32,0,0,0,6.12-4.43c.62-.56,1.2-1.15,1.76-1.76a15.78,15.78,0,0,0,3.75,5.56,15.1,15.1,0,0,0,8.68,4.66,15.76,15.76,0,0,0,2,.14,10.36,10.36,0,0,0,7-2.44l10.52-9.1-2.05-.21a8.53,8.53,0,0,0,3.18-1.92c1.08-1,2.13-2.13,3.14-3.28a14.31,14.31,0,0,0,3.28,2.82,13.72,13.72,0,0,0,5.22,1.93,11.2,11.2,0,0,0,6.51-.93,24,24,0,0,0,7.45-5.72,75.72,75.72,0,0,0,6-7.48c1.85-2.64,3.63-5.36,5.3-8.11s3.05-5.1,4.32-7.3a7.19,7.19,0,0,0-.33-7.71,9.12,9.12,0,0,0-3.28-2.91h0a9.75,9.75,0,0,0-4-1.14,8,8,0,0,0-2.79.32,8.72,8.72,0,0,0-1.26-2.77,13.58,13.58,0,0,0-3.92-3.77,12.7,12.7,0,0,0-5.14-1.94c0-.11,0-.21,0-.31V123l-.06-.43a21.12,21.12,0,0,0-.41-2.08l-.39-1.54-.12-.49-.21-.47-.21-.46.24-.14,1.17-.75a23.7,23.7,0,0,0,6.56,9.06,31.44,31.44,0,0,0,12.26,6.17A65,65,0,0,0,306,133.81a56.71,56.71,0,0,0,18.33-2.72,41.41,41.41,0,0,0,13.46-7.39,31.88,31.88,0,0,0,8.45-11,31,31,0,0,0,2.86-13A21.75,21.75,0,0,0,347.24,90.51ZM150.49,134.57a20.57,20.57,0,0,0-7-2.69l1.94-5a53,53,0,0,0,7.84,1.66,7.28,7.28,0,0,0,.07,1.62,7.2,7.2,0,0,0-1.23,1.5C151.55,132.57,151,133.53,150.49,134.57Zm88.22-59.09a22.63,22.63,0,0,1-.63,3.71,10.65,10.65,0,0,1-.88-2.53,25,25,0,0,1-.54-4.71c0-1.91-.07-3.85-.07-5.75,0-1,0-2.34.14-4h0c.05-.94.14-1.92.25-2.92a49.69,49.69,0,0,1,1.46,7.1,46.46,46.46,0,0,1,.48,5.36C238.92,72.65,238.85,73.91,238.71,75.48Zm-39.49,48.84a10.18,10.18,0,0,0-1.28-.92l-.14-.09-1.31-.78.25-2.09a29.48,29.48,0,0,0,2.26-2.07,27,27,0,0,0,3.14,3.54A25.76,25.76,0,0,0,199.22,124.32ZM165.56,75.69a13.78,13.78,0,0,1-.83,3.51,4.63,4.63,0,0,1-1.1,1.72,1.74,1.74,0,0,1-.46,0c-.35,0-.41-.06-.54-.19A7.93,7.93,0,0,1,160.91,78a23.78,23.78,0,0,1-1.32-4.66,25.07,25.07,0,0,1-.43-4c0-1.29.12-3.08.34-5.3a40,40,0,0,1,1.17-6.29,13.4,13.4,0,0,1,1.46-3.5,28.73,28.73,0,0,1,1.9,5,45.45,45.45,0,0,1,1.38,7.07,52.16,52.16,0,0,1,.42,5.23A36.84,36.84,0,0,1,165.56,75.69Zm-63.78-9.63c-2.71,1-5.36,2-7.88,3.21-2.22,1-4.39,2-6.44,2.93A8.76,8.76,0,0,1,84,73c-.58,0-.64-.08-.79-.28-.31-.41-.82-1.45-.82-3.87a20.2,20.2,0,0,1,1.11-6.4,27.27,27.27,0,0,1,3-6.31A17.76,17.76,0,0,1,90.13,52a3.26,3.26,0,0,1,1.62-.84,1.59,1.59,0,0,1,.88.3c1.22.76,2.51,1.59,3.81,2.47A42.33,42.33,0,0,0,101.75,57a18.27,18.27,0,0,0,8.09,1.8,15.61,15.61,0,0,0,6.68-1.39h0c-.47,2.43-.82,4.86-1,7.25a25.88,25.88,0,0,0-3.69-.25A30,30,0,0,0,101.78,66.06ZM235.53,172.53c0-.16-.07-.37-.1-.62.36.2.73.4,1.11.58l.42.19Z"/><path class="cls-1" d="M305.45,130.94c-2.55.39-4.87,2-6.9,4.91l-.1.17c-2.23,3.54-1.5,6.32-.78,7.77a8.79,8.79,0,0,0,4.84,4.62l.15.06a8.87,8.87,0,0,0,3.09.57,8.56,8.56,0,0,0,3.85-.93c1.68-.82,3.84-2.67,4.64-6.85l0-.2c.42-3.08-.18-5.61-1.79-7.5A7.27,7.27,0,0,0,305.45,130.94Z"/><path class="cls-1" d="M305.34,151.79l-.13-.1a8.89,8.89,0,0,0-6.78-1.9l-.11,0a8.79,8.79,0,0,0-6.41,4.74l-.15.29c-1.9,4.16-1,7,.31,8.85a23.75,23.75,0,0,1-2.54,6.54l-.13.21-.09.23a5.27,5.27,0,0,0,.63,5.24l.18.23.21.21a7.17,7.17,0,0,0,1.4,1.12,7.42,7.42,0,0,0,1.72.73l.2.05a5.71,5.71,0,0,0,1.22.14,5,5,0,0,0,4.06-2.08c.68-.88,1.45-2,2.28-3.19s1.76-2.75,2.72-4.42a46.24,46.24,0,0,0,2.4-4.76,30.26,30.26,0,0,0,1.4-4.05l.09-.41C308.4,155.43,306.79,153.06,305.34,151.79Z"/><path class="cls-1" d="M41.19,137.29c-.26-1.18-1.35-3.95-5.83-4.3l-2.79-.22-1.17,3c-.13.34-.29.72-.48,1.12a6.94,6.94,0,0,1-.48.85l-.08.12c-.13.21-.25.34-.35.37a1.63,1.63,0,0,1-.32.05.51.51,0,0,1-.13-.13,11.36,11.36,0,0,1-2-4.19c-.46-2.06-.91-4.24-1.34-6.5s-.79-4.63-1.09-7.2-.57-5.06-1-7.31-.81-4.37-1.27-6.34l0-.17a18.18,18.18,0,0,0-2-4.78,13.27,13.27,0,0,0,1.59-5.58c.18-1.65.3-3.48.38-5.44s.07-4.13,0-6.39-.1-4.42,0-6.56.2-4.24.41-6.34c.3-3.24,1.23-5.7,2.76-7.3a3.52,3.52,0,0,1,.51-.33h.19l.16.11.08.05a3.92,3.92,0,0,0,4.41.87l.87-.39.58-.76a7,7,0,0,0,1.64-5.91l-.07-.3-.12-.29c-1.12-2.75-3.65-4.57-7.52-5.4l-.11,0a18.17,18.17,0,0,0-10.74,1.42c-4,1.57-7.1,4.71-9.23,9.34l-.18.38-.08.4a17.76,17.76,0,0,0-.22,4.38c.06,1.66.22,3.76.47,6.24.37,3.66.62,7.34.73,11,.07,1.89,0,3.65,0,5.23a29.44,29.44,0,0,1-.58,4.22,4.6,4.6,0,0,1-1.55,2.77l-.54.09a5.18,5.18,0,0,0-4.47,4A6,6,0,0,0,1,105.86a6.67,6.67,0,0,0,3.65,2.88l.26.08c.19,0,.78.19,1.36,1.68l.07.16a19.57,19.57,0,0,1,1,2.9,31.76,31.76,0,0,1,.71,3.75c.22,1.53.4,3.07.56,4.55s.29,3.06.38,4.65v.08c.14,1.77.3,3.5.49,5.16s.37,3.19.56,4.7l0,.18a23.75,23.75,0,0,0,2.65,8l.2.3A23.65,23.65,0,0,0,16.71,149a15,15,0,0,0,4.3,2.65l.06,0a14.39,14.39,0,0,0,5,.93,12,12,0,0,0,3.77-.6l.12,0a19.57,19.57,0,0,0,8.49-5.84l.12-.16c2.22-2.95,3.12-5.8,2.7-8.48Z"/><path class="cls-1" d="M395.74,96.16l-.18-.35a6.52,6.52,0,0,0-3.48-3,3.28,3.28,0,0,1-1.53-2A24.81,24.81,0,0,1,389.34,84c-.11-1.49-.19-3-.26-4.59s-.1-3.14-.13-4.72c0-1.78,0-3.52-.12-5.18s-.16-3.18-.24-4.64v-.09a20.85,20.85,0,0,0-2.1-8.37l-.15-.25c-2.4-3.72-4.94-6.12-7.76-7.33a13.15,13.15,0,0,0-8.59-.94,17.48,17.48,0,0,0-9.05,5.4c-2.64,3-3.75,5.77-3.37,8.46l0,.17c.39,2.09,2.11,4.41,5.76,4.62l1.74.11,1.21-1.27a3.94,3.94,0,0,0,.42-.51l.61-.64.21-1a.45.45,0,0,1,.07-.14c.23-.36.48-.7.73-1l.14-.2c.12-.18.19-.22.22-.23l.34,0h.13a.72.72,0,0,1,.11.12A9.69,9.69,0,0,1,370.88,66l0,.11a106.16,106.16,0,0,1,1.48,13.8c.12,2.56.28,5,.48,7.3a53.93,53.93,0,0,0,.93,6.56,16.58,16.58,0,0,0,1.68,5.07,13.5,13.5,0,0,0-1.94,5.3A72.61,72.61,0,0,0,372.37,116c-.1,2.3-.24,4.55-.43,6.7s-.44,4.18-.78,6.19c-.64,3.38-1.75,5.81-3.31,7.23a4.86,4.86,0,0,1-.43.26h-.22l0,0a7.92,7.92,0,0,0-.65-.55,4,4,0,0,0-4-.85l-.91.33L361,136a9.9,9.9,0,0,0-1.57,2.32,5.54,5.54,0,0,0-.25,4c.81,2.87,3.23,4.89,7.21,6l.2,0a19.05,19.05,0,0,0,4.06.44c.37,0,.74,0,1.12,0a21.75,21.75,0,0,0,5.47-1.1c4.09-1.28,7.39-4.25,9.82-8.82l.19-.35.11-.39a19.51,19.51,0,0,0,.57-4.25c.08-1.66.1-3.81,0-6.38v-.21c-.13-1.67-.19-3.4-.18-5.16s.05-3.73.12-5.66a36.5,36.5,0,0,1,1.32-9.37,4.44,4.44,0,0,1,1.59-2.65l.58,0a5.26,5.26,0,0,0,4.79-3.61l.1-.31.05-.33A6.88,6.88,0,0,0,395.74,96.16Z"/><path class="cls-2" d="M88.91,17.6a44.15,44.15,0,0,1,12.48,1.65A27.85,27.85,0,0,1,110.88,24a21.12,21.12,0,0,1,8.23,17.12q0,5.69-2.39,8.67a8.31,8.31,0,0,1-6.88,3,12.32,12.32,0,0,1-5.46-1.2,35,35,0,0,1-4.56-2.61c-1.4-1-2.74-1.82-4-2.62a7.56,7.56,0,0,0-4-1.2,8.64,8.64,0,0,0-5.39,2.17,24.17,24.17,0,0,0-4.93,5.61,33.18,33.18,0,0,0-3.66,7.7,26.09,26.09,0,0,0-1.42,8.3q0,4.78,2,7.47A6.58,6.58,0,0,0,84,79.05a14.66,14.66,0,0,0,5.91-1.34c2-.9,4.23-1.89,6.58-3s4.78-2.09,7.32-3a23.79,23.79,0,0,1,8-1.35q7.18,0,11.21,4.41T127,87a31.85,31.85,0,0,1-3.29,14,44.16,44.16,0,0,1-21.15,20.78A33.76,33.76,0,0,1,88.31,125q-10.92,0-18.69-3.21A28.13,28.13,0,0,1,57,111.5q-4.87-7-7.11-18.17a139.39,139.39,0,0,1-2.24-27,68.67,68.67,0,0,1,2.84-20.56,43.67,43.67,0,0,1,8.15-15.33,34.87,34.87,0,0,1,12.93-9.57A43.5,43.5,0,0,1,88.91,17.6Z"/><path class="cls-2" d="M121.15,71.43a69.38,69.38,0,0,1,1.27-12.93,70.45,70.45,0,0,1,3.82-13,72.86,72.86,0,0,1,6.13-12,47.61,47.61,0,0,1,8.29-9.94,39.29,39.29,0,0,1,10.4-6.8,29.55,29.55,0,0,1,12.26-2.54,28.3,28.3,0,0,1,17.49,5.75,50.34,50.34,0,0,1,12.86,14.5,72.79,72.79,0,0,1,7.92,19.14,78.78,78.78,0,0,1,2.69,19.81,140.93,140.93,0,0,1-1.64,23.4q-1.65,9.49-6.21,15.4a24.88,24.88,0,0,1-12.71,8.45q-8.15,2.53-21.15,2.54-21.52,0-31.47-12.48T121.15,71.43Zm42,15.55a6.32,6.32,0,0,0,4.56-1.65,10.78,10.78,0,0,0,2.61-4,19.75,19.75,0,0,0,1.2-5,43.51,43.51,0,0,0,.3-4.78,57.61,57.61,0,0,0-.45-5.91,51.59,51.59,0,0,0-1.57-8,32.55,32.55,0,0,0-2.84-7.1q-1.72-3.06-4.41-3.06a5.76,5.76,0,0,0-4.86,2.54,18.27,18.27,0,0,0-2.84,6.13,45.13,45.13,0,0,0-1.35,7.25q-.37,3.66-.37,5.91a30.07,30.07,0,0,0,.52,5.08,29.77,29.77,0,0,0,1.65,5.83A13.79,13.79,0,0,0,158.38,85,6.5,6.5,0,0,0,163.17,87Z"/><path class="cls-2" d="M225,17.46a34.62,34.62,0,0,1,13.68,2.76A56.37,56.37,0,0,1,251,27.4a83.47,83.47,0,0,1,10.77,9.87q5,5.46,9,10.69a34,34,0,0,1,4,6.65,55.14,55.14,0,0,1,3,7.85,66.22,66.22,0,0,1,1.87,8.15,47.56,47.56,0,0,1,.67,7.7,64,64,0,0,1-.74,9.42,48.47,48.47,0,0,1-2.47,9.56,36.3,36.3,0,0,1-4.49,8.53,23.26,23.26,0,0,1-7,6.43A111.12,111.12,0,0,1,247,121.07a57.8,57.8,0,0,1-20,3.73,39,39,0,0,1-8.6-1,28,28,0,0,1-8.37-3.37,21.52,21.52,0,0,1-6.36-5.83,14,14,0,0,1-2.54-8.44,26,26,0,0,1,1.2-7.85q1.19-3.83,2.54-7.63c.9-2.54,1.74-5.08,2.54-7.62a26,26,0,0,0,1.2-7.85A17.77,17.77,0,0,0,207,67q-1.65-3.21-3.51-6.51A55.71,55.71,0,0,1,199.92,53a31.58,31.58,0,0,1-1.64-11.13c0-1.3,0-2.7.08-4.19a26.42,26.42,0,0,1,.52-4.49A19.1,19.1,0,0,1,200.22,29a7.89,7.89,0,0,1,2.55-3.14A51.22,51.22,0,0,1,213.31,20,30.07,30.07,0,0,1,225,17.46Zm5.53,48.74c0,1.89,0,3.86.08,5.9a30.94,30.94,0,0,0,.67,5.83,16.19,16.19,0,0,0,2,5.09,9.13,9.13,0,0,0,4,3.51,4,4,0,0,0,1.8.45A3.35,3.35,0,0,0,242,85.26a14.7,14.7,0,0,0,1.8-4.19A28.41,28.41,0,0,0,244.7,76c.15-1.74.23-3.16.23-4.26a51.8,51.8,0,0,0-.53-6.13,55.39,55.39,0,0,0-1.64-8,24.53,24.53,0,0,0-3.06-6.88,5.68,5.68,0,0,0-4.79-2.91,6.52,6.52,0,0,0-2.24,3.29,26.66,26.66,0,0,0-1.35,5.23,54.87,54.87,0,0,0-.6,5.53C230.62,63.65,230.57,65.1,230.57,66.2Z"/><path class="cls-2" d="M306.79,18.35a21.53,21.53,0,0,0,7.1-1.27A21.85,21.85,0,0,1,321,15.81a11.18,11.18,0,0,1,6.5,1.72A12.73,12.73,0,0,1,331.61,23q1.35,3.29,2.69,7.32a23.72,23.72,0,0,1,1.35,7.48q0,4.34-2.39,5.9A11.26,11.26,0,0,1,327,45.26a22.24,22.24,0,0,1-7.85-1.42,22.47,22.47,0,0,0-7.85-1.42,10,10,0,0,0-5.38,1.72A5.46,5.46,0,0,0,303.2,49a6.19,6.19,0,0,0,.68,3.29,3.33,3.33,0,0,0,1.87,1.42,7.93,7.93,0,0,0,2.76.3c1.05,0,2.17-.07,3.37-.07a25.65,25.65,0,0,1,9,1.49,5.71,5.71,0,0,1,4,5.83,10.47,10.47,0,0,1-1,4.86,8.07,8.07,0,0,1-2.61,3,9.57,9.57,0,0,1-3.74,1.5,23.73,23.73,0,0,1-4.19.37,11.05,11.05,0,0,0-5.53,1.35c-1.6.89-2.39,2.49-2.39,4.78a8.36,8.36,0,0,0,.89,3.74,11.94,11.94,0,0,0,5.76,5.46,9.54,9.54,0,0,0,3.81.82,12.2,12.2,0,0,0,3.67-.53c1.14-.34,2.26-.69,3.36-1s2.27-.7,3.51-1a15.24,15.24,0,0,1,4.12-.52,9.13,9.13,0,0,1,3.81,1,14.6,14.6,0,0,1,4.11,3.07A18.06,18.06,0,0,1,341.78,93a15.72,15.72,0,0,1,1.34,6.66,25,25,0,0,1-2.31,10.46,25.83,25.83,0,0,1-6.88,9,35,35,0,0,1-11.51,6.28A50.32,50.32,0,0,1,306,127.8a60,60,0,0,1-15.62-1.72,25.52,25.52,0,0,1-9.94-4.94,17.68,17.68,0,0,1-5.31-7.85,32.94,32.94,0,0,1-1.57-10.61,52.67,52.67,0,0,1,1-10.09q1-5,2.25-10t2.24-10a52.67,52.67,0,0,0,1-10.09,36.15,36.15,0,0,0-.6-6.65q-.6-3.23-1.49-6.51l-1.8-6.43q-.9-3.28-1.49-6.5a36.15,36.15,0,0,1-.6-6.65,14.1,14.1,0,0,1,1.49-7,10.93,10.93,0,0,1,3.67-4A13.08,13.08,0,0,1,283.77,17a23.6,23.6,0,0,1,4.33-.45,57.32,57.32,0,0,1,6.28.3c1.8.2,3.39.4,4.79.6s2.71.39,4,.59A23.06,23.06,0,0,0,306.79,18.35Z"/><path class="cls-3" d="M154.59,95.93a6.66,6.66,0,0,1,3.9,1.32,8.37,8.37,0,0,1,2.39,2.92,11.85,11.85,0,0,1,1.07,3.61,11.12,11.12,0,0,1,0,3.27,3.48,3.48,0,0,1-.88,2q-.63.59-1.41-.39a6,6,0,0,0-4.29-1.76,26.48,26.48,0,0,0-6.29.39,51.23,51.23,0,0,0-6.49,1.56,29.66,29.66,0,0,0-4.77,1.85,6.08,6.08,0,0,1,2.24.25,7.55,7.55,0,0,1,2.05.92,5.27,5.27,0,0,1,1.41,1.37,1.29,1.29,0,0,1,.24,1.36l-9.55,24.57a11,11,0,0,1,7.17-1.51,15.21,15.21,0,0,1,6,2.1,7.92,7.92,0,0,1,3.22,3.41,1.68,1.68,0,0,1-1.07,2.54,5.45,5.45,0,0,1-1-.59,4.83,4.83,0,0,0-2.68-.39,27.66,27.66,0,0,0-5.56,1.12,80.64,80.64,0,0,0-9.75,3.76l-10.62,27.88a2.7,2.7,0,0,1-2.34,1.8,7.54,7.54,0,0,1-3.51-.34,6.91,6.91,0,0,1-2.93-1.85,2.57,2.57,0,0,1-.58-2.83l7-18.42a8.29,8.29,0,0,0-1.37.78l-1.9,1.26-2,1.32q-.93.63-1.41.93a2.5,2.5,0,0,1-2.59-.1,9,9,0,0,1-2.68-2.15,7.23,7.23,0,0,1-1.56-2.82,1.72,1.72,0,0,1,.78-2.15c1.43-.84,2.88-1.66,4.34-2.44s2.88-1.54,4.24-2.29l3.71-2q1.65-.87,2.73-1.56c.32-1.36.65-3,1-4.87s.57-3.79.73-5.7a35.13,35.13,0,0,0,0-5.61,12,12,0,0,0-1.17-4.63,5.73,5.73,0,0,0-2.87-2.73,7.81,7.81,0,0,0-5.12,0,2.86,2.86,0,0,1-2.78-.54,6.08,6.08,0,0,1-2-2.58,5.83,5.83,0,0,1-.39-3.12,2.85,2.85,0,0,1,1.7-2.25q6.74-2.92,13.31-5.94t12.48-5.46a106.58,106.58,0,0,1,10.92-3.9A29.44,29.44,0,0,1,154.59,95.93ZM119,118.45a35.79,35.79,0,0,1,3.61,1.86,10.53,10.53,0,0,1,2.53,2.09,10,10,0,0,1,1.76,3,30.63,30.63,0,0,1,1.26,4.48L134.6,112c-1.56.58-2.94,1.12-4.14,1.61s-2.39,1-3.56,1.46-2.38,1-3.61,1.56S120.62,117.81,119,118.45Z"/><path class="cls-3" d="M172,141a1.52,1.52,0,0,1,1.17-.73,2.08,2.08,0,0,1,1.22.24,2.42,2.42,0,0,1,.87.78.81.81,0,0,1,0,1q-1.07,2.25-3.12,5.85c-1.36,2.41-2.86,4.81-4.48,7.22a65.45,65.45,0,0,1-5,6.53,14.37,14.37,0,0,1-4.63,3.8,6,6,0,0,1-2.93.3,9.32,9.32,0,0,1-3.12-.93,7.31,7.31,0,0,1-2.44-1.95,3.88,3.88,0,0,1-.87-2.78,32.9,32.9,0,0,1,.82-5.22q.74-3.26,1.95-6.92c.82-2.43,1.71-4.84,2.69-7.21a42.27,42.27,0,0,1,3-6.1,2.18,2.18,0,0,1,2-.78,7.94,7.94,0,0,1,3,.59,7.11,7.11,0,0,1,2.44,1.56,1.72,1.72,0,0,1,.49,2.05,102.7,102.7,0,0,0-6.24,13.69q-1.66,4.94-1.08,6.39c.26.72.82.8,1.66.24a15.83,15.83,0,0,0,3.17-3.16c1.27-1.56,2.71-3.58,4.34-6S170.28,144.1,172,141Zm-6.14-10.24a2.28,2.28,0,0,1-1.71.88,5.91,5.91,0,0,1-2.24-.25,5.5,5.5,0,0,1-1.95-1,1.59,1.59,0,0,1-.73-1.46,21.47,21.47,0,0,1,.63-2.88c.29-1,.6-2,.93-2.83s.64-1.67,1-2.39.59-1.26.78-1.65a2.48,2.48,0,0,1,2.15-.93,7.84,7.84,0,0,1,3.07.54,7.1,7.1,0,0,1,2.48,1.56,1.48,1.48,0,0,1,.39,2c-.19.39-.5,1-.92,1.7s-.87,1.53-1.32,2.34-.91,1.61-1.36,2.39S166.22,130.15,165.9,130.74Z"/><path class="cls-3" d="M199,140.2a1.13,1.13,0,0,1,1-.3,3.11,3.11,0,0,1,1.22.49,2.45,2.45,0,0,1,.88,1,1.37,1.37,0,0,1-.1,1.31,36.91,36.91,0,0,1-3.56,7.56,50.56,50.56,0,0,1-5.22,7.07,59.19,59.19,0,0,1-6.14,6,40.61,40.61,0,0,1-6.34,4.49,5.18,5.18,0,0,1-3.12.58,11.43,11.43,0,0,1-3.31-.93,16.3,16.3,0,0,1-3-1.7A18.88,18.88,0,0,1,169,164a8,8,0,0,1-2-5.22,23.83,23.83,0,0,1,.73-7.07,45.14,45.14,0,0,1,2.78-7.9,61.35,61.35,0,0,1,4.14-7.7,44.27,44.27,0,0,1,4.83-6.34,20.61,20.61,0,0,1,4.77-4,6.21,6.21,0,0,1,2.54-.73,6.32,6.32,0,0,1,2.44.39,12.74,12.74,0,0,1,2.58,1.26c.88.56,1.87,1.16,3,1.81a3.85,3.85,0,0,1,2.15,3.7,15.75,15.75,0,0,1-.83,3.8,34.79,34.79,0,0,1-2.34,5.71,29.07,29.07,0,0,1-3.7,5.56,10.93,10.93,0,0,1-4.93,3.46,9.31,9.31,0,0,1-3.41.29,11.89,11.89,0,0,1-3.22-1,20.51,20.51,0,0,0-1.07,2.88,27.13,27.13,0,0,0-.88,3.85,16.43,16.43,0,0,0-.19,3.46q.09,1.52,1.17,1.71,1.56.28,4.43-1.66a39.83,39.83,0,0,0,6-5.12,72.14,72.14,0,0,0,6.14-7.16A48.09,48.09,0,0,0,199,140.2ZM189.2,133a13.88,13.88,0,0,0-2.49,2.59q-1.52,1.89-2.92,4t-2.44,4a7.58,7.58,0,0,0-1,2.34,3.8,3.8,0,0,0,3.27-1.07,14.31,14.31,0,0,0,2.73-3.46,22,22,0,0,0,2-4.44A22.44,22.44,0,0,0,189.2,133Z"/><path class="cls-3" d="M228.59,139.71a5.4,5.4,0,0,1,3.12.68,13,13,0,0,1,2.53,1.56,1.94,1.94,0,0,1-.54.44.65.65,0,0,1-.34,0l-.53-.15a2.39,2.39,0,0,0-.93,0,16.8,16.8,0,0,0-4.29,1.9q-2.84,1.62-5.85,3.61t-5.6,3.9a25.33,25.33,0,0,0-3.37,2.78c.33.52.65,1,1,1.46s.65,1,1,1.47a9.24,9.24,0,0,1,1.27,5.26,12.11,12.11,0,0,1-1.61,5.12,19,19,0,0,1-3.75,4.63,26.26,26.26,0,0,1-5,3.61,13.44,13.44,0,0,1-3.94,1.41,16.13,16.13,0,0,1-4.29.29,13.52,13.52,0,0,1-3.9-.82,6.36,6.36,0,0,1-2.83-2,5.26,5.26,0,0,1-1.07-3.17,8.06,8.06,0,0,1,1.41-4.29,30.8,30.8,0,0,1,5.8-6.92q3.56-3.22,7.26-6-1.76-2.53-3.55-4.83a13,13,0,0,1-2.49-5.11,14.22,14.22,0,0,1-.24-5.12,16.8,16.8,0,0,1,1.41-4.93,18.25,18.25,0,0,1,2.78-4.33,19.21,19.21,0,0,1,3.85-3.47,4.38,4.38,0,0,1,2.53-.63,10.08,10.08,0,0,1,2.93.54,14.85,14.85,0,0,1,2.68,1.17,18.89,18.89,0,0,1,1.9,1.17,39,39,0,0,1,4.44-6.1c1.26-1.33,2.29-2.35,3.07-3.07.45-.32,1.07-.24,1.85.25a9,9,0,0,1,2.19,2A9.46,9.46,0,0,1,229,124.4c.36.85.31,1.43-.14,1.76a23.07,23.07,0,0,0-3.71,3.41,49.31,49.31,0,0,0-4,5,26.23,26.23,0,0,0-2.88,5.12,5.2,5.2,0,0,0-.34,4.05,2,2,0,0,1-1.32-.1,7.23,7.23,0,0,1-1.66-.88,6.75,6.75,0,0,1-1.51-1.51,6,6,0,0,1-1-2,4.18,4.18,0,0,1,0-1.8,18.83,18.83,0,0,1,.49-2,14.43,14.43,0,0,1,.68-1.85c.26-.59.45-1,.58-1.37a4.17,4.17,0,0,0-3.46,2,14.18,14.18,0,0,0-2.39,5,19,19,0,0,0-.58,6.1,8.67,8.67,0,0,0,2.05,5.31c1.23-.78,2.68-1.76,4.33-2.93s3.34-2.32,5-3.46a48.42,48.42,0,0,1,5-3A14.74,14.74,0,0,1,228.59,139.71Zm-31.5,31.88a6.66,6.66,0,0,0,3.27-1.51,19.83,19.83,0,0,0,3.51-3.36,18.22,18.22,0,0,0,2.54-4,4,4,0,0,0,.34-3.32q-3,2.83-5.71,5.71A18.44,18.44,0,0,0,197.09,171.59Z"/><path class="cls-3" d="M252.28,114.36q4.09.78,6.33,1.46A7.36,7.36,0,0,1,262,118a16,16,0,0,1,1.26,2.43c.13.53.26,1,.39,1.56s.23,1,.3,1.47c0,1-.3,1.52-.88,1.65q-1.47-2-5.85-3.12a40.42,40.42,0,0,0-10-1.26L245.65,123l-1.56,2.34a123.58,123.58,0,0,0-8.19,16.77,129.59,129.59,0,0,0-5.36,17.16q-1.75,8.28-1.08,13.35c.46,3.58,1.95,5.5,4.49,5.76a5.26,5.26,0,0,1-4.29.87,9.25,9.25,0,0,1-5.27-3c-1.82-1.69-2.95-4.22-3.41-7.6a32.29,32.29,0,0,1,.54-8.93,87.5,87.5,0,0,1,3.07-11.65q2.15-6.53,4.82-12.77T235.22,123a4.55,4.55,0,0,1,.48-.93,4.59,4.59,0,0,0,.49-.93,10.59,10.59,0,0,0-1.22.1c-.49.07-1,.16-1.61.29l-1.66.39c-.52.14-1,.3-1.55.49a3.65,3.65,0,0,0-1.27.54,4.75,4.75,0,0,0-.68.53c-.39.65-.75.85-1.08.59a4.62,4.62,0,0,1-1.17-1.27,5.36,5.36,0,0,0-.48-.92A4.87,4.87,0,0,1,225,121a6.4,6.4,0,0,1-.29-.88,2.9,2.9,0,0,0-.2-.58,2.06,2.06,0,0,1,.2-2,1.71,1.71,0,0,1,.58-.78,9.59,9.59,0,0,1,.88-.59,32.77,32.77,0,0,1,6.63-1.75l3.31-.39,2.93-.39h.68a5,5,0,0,0,.88-.1,79.41,79.41,0,0,1,6.43-8.09,2.75,2.75,0,0,1,2.83-.49,7.12,7.12,0,0,1,3.31,1.85,6.22,6.22,0,0,1,1.95,2.73c.2.91,0,1.53-.48,1.85l-1.37,1.71Z"/><path class="cls-3" d="M281.62,138.25a1.23,1.23,0,0,1,1.13-.34,3.72,3.72,0,0,1,1.56.43,3.43,3.43,0,0,1,1.17,1,1.14,1.14,0,0,1,0,1.31c-1.23,2.15-2.65,4.54-4.24,7.17s-3.28,5.22-5.07,7.75a66.17,66.17,0,0,1-5.51,6.87,18.1,18.1,0,0,1-5.55,4.34,5.16,5.16,0,0,1-3.07.44,7.54,7.54,0,0,1-2.93-1.07,8.27,8.27,0,0,1-2.24-2.05,4.65,4.65,0,0,1-1-2.39,13.63,13.63,0,0,1,.39-4.29c.39-1.82.82-3.47,1.27-5-.78.91-1.61,2-2.48,3.17s-1.84,2.49-2.88,3.85-2.13,2.73-3.27,4.1a43,43,0,0,1-3.56,3.8,3.14,3.14,0,0,1-2.68.68,11.17,11.17,0,0,1-3.56-1,10.8,10.8,0,0,1-3.07-2.15,3.27,3.27,0,0,1-1.12-2.78,31.56,31.56,0,0,1,1.76-7.89,57,57,0,0,1,3.56-8.14,53,53,0,0,1,4.68-7.37,34.65,34.65,0,0,1,5.11-5.55,7.16,7.16,0,0,1,3.42-1.66,6.33,6.33,0,0,1,3,.34,13,13,0,0,1,2.92,1.56c1,.68,2,1.35,3.12,2q1.08-1.17,2.1-2.49c.68-.87,1.41-1.74,2.19-2.58a2.22,2.22,0,0,1,2.2-.68,6.85,6.85,0,0,1,2.87,1.07,7.5,7.5,0,0,1,2.2,2.1,1.93,1.93,0,0,1,.14,2.29,111.06,111.06,0,0,0-5.31,10,61.6,61.6,0,0,0-2.92,7.41,15.21,15.21,0,0,0-.88,4.58c0,1,.27,1.56.73,1.56,1.3-.06,3.28-1.82,5.95-5.26A149.32,149.32,0,0,0,281.62,138.25Zm-23.69,3.8a2.34,2.34,0,0,0,.29-1.37,4.62,4.62,0,0,0-.34-1.8,1.61,1.61,0,0,0-1-1c-.46-.13-1,.19-1.76,1A28.67,28.67,0,0,0,251,143.9a58.45,58.45,0,0,0-3.31,5.75,51.91,51.91,0,0,0-2.3,5.22,11.71,11.71,0,0,0-.87,3.56,29.47,29.47,0,0,0,2.87-2.88q1.82-2,3.76-4.43c1.3-1.63,2.56-3.25,3.8-4.88S257.15,143.22,257.93,142.05Z"/><path class="cls-4" d="M295.18,156.4a4.91,4.91,0,0,1,7.68-1.78,4.52,4.52,0,0,1,1.24,4.32,27.16,27.16,0,0,1-1.24,3.54,42.21,42.21,0,0,1-2.19,4.35q-1.38,2.4-2.58,4.19c-.8,1.19-1.52,2.19-2.16,3a1.3,1.3,0,0,1-1.44.55,3.68,3.68,0,0,1-.82-.35,3.62,3.62,0,0,1-.69-.54,1.54,1.54,0,0,1-.2-1.58,28.47,28.47,0,0,0,3.36-9.61Q293.32,160.45,295.18,156.4ZM301.63,138c1.41-2,2.88-3.14,4.39-3.37a3.57,3.57,0,0,1,3.57,1.31,5.63,5.63,0,0,1,1,4.6q-.62,3.23-2.61,4.18a4.85,4.85,0,0,1-4,.21,5,5,0,0,1-2.88-2.75Q300.12,140.42,301.63,138Z"/><path class="cls-4" d="M10,64.07q2.61-5.65,7.26-7.45a14.57,14.57,0,0,1,8.63-1.19c2.59.56,4.2,1.6,4.82,3.14a3.51,3.51,0,0,1-.95,2.8c-.1.05-.19,0-.28-.22l-.56-.37-.8-.53A5.87,5.87,0,0,0,26.08,60a4.83,4.83,0,0,0-2.61,1.24q-3.43,3.37-4,9.8-.33,3.22-.43,6.57t0,6.81c.1,2.19.1,4.22,0,6.1s-.2,3.62-.37,5.22c-.27,3.24-1.35,5.21-3.26,5.94q2.44.94,3.8,5.8.66,2.86,1.23,6.14t.94,7.06c.31,2.68.68,5.19,1.13,7.51s.91,4.56,1.38,6.69a15.13,15.13,0,0,0,2.7,5.67A3.88,3.88,0,0,0,31,141.89a4.32,4.32,0,0,0,2.54-2,11,11,0,0,0,.76-1.35c.23-.48.42-.93.59-1.36l.16-.42c1.46.11,2.28.57,2.46,1.37.26,1.65-.41,3.52-2,5.64a15.72,15.72,0,0,1-6.88,4.72,9.46,9.46,0,0,1-6.29-.29,11.15,11.15,0,0,1-3.22-2,20.56,20.56,0,0,1-3.19-3.52A20.44,20.44,0,0,1,13.76,136c-.19-1.49-.38-3-.56-4.63s-.33-3.27-.47-5-.22-3.28-.39-4.84-.36-3.13-.57-4.68a36.53,36.53,0,0,0-.8-4.18,24.22,24.22,0,0,0-1.19-3.47q-1.29-3.3-4-4a3,3,0,0,1-1.64-1.3A2.34,2.34,0,0,1,3.8,102a1.5,1.5,0,0,1,1.42-1.16l1-.17q3-1.08,4.15-5.54A32.9,32.9,0,0,0,11,90.33a54.26,54.26,0,0,0,.06-5.61q-.18-5.56-.74-11.2-.37-3.61-.47-6A15.66,15.66,0,0,1,10,64.07Z"/><path class="cls-4" d="M383.18,58.16A17.7,17.7,0,0,1,384.83,65c.07,1.46.15,3,.23,4.63s.12,3.31.12,5,.08,3.27.14,4.84.15,3.16.26,4.72A28.08,28.08,0,0,0,387,92.12a6.87,6.87,0,0,0,3.69,4.22,2.78,2.78,0,0,1,1.62,1.39,3.24,3.24,0,0,1,.26,1.88,1.55,1.55,0,0,1-1.5,1.06h-.51c-.17,0-.37,0-.59,0q-3.11.87-4.41,5.3a40.43,40.43,0,0,0-1.46,10.32c-.08,2-.13,3.89-.13,5.75s.06,3.68.19,5.47c.06,2.49,0,4.53,0,6.1a16.92,16.92,0,0,1-.42,3.42q-3,5.55-7.66,7a17.84,17.84,0,0,1-4.55.94,15.23,15.23,0,0,1-4.15-.33c-2.68-.74-4.21-1.89-4.61-3.46a1.7,1.7,0,0,1,.06-1.36,6.31,6.31,0,0,1,1-1.43c.05,0,.16.06.34.22s.32.26.49.42a4.09,4.09,0,0,0,.71.52,3.6,3.6,0,0,0,2.15.5,4.13,4.13,0,0,0,2.7-1.07q3.46-3,4.67-9.52c.37-2.14.64-4.31.84-6.53s.33-4.51.44-6.9a68.15,68.15,0,0,1,1.1-11.3q.81-4.85,3.69-5.64c-1.71-.75-2.85-2.79-3.44-6.12a50.94,50.94,0,0,1-.88-6.16q-.29-3.37-.47-7.17a110,110,0,0,0-1.53-14.29,13.36,13.36,0,0,0-2.27-5.95,4.25,4.25,0,0,0-6.95.23c-.31.4-.62.82-.91,1.27a4.4,4.4,0,0,0-.6,1.42.86.86,0,0,0-.14.18,1.15,1.15,0,0,1-.15.19c-1.35-.08-2.11-.6-2.29-1.57q-.31-2.28,2.47-5.45a13.67,13.67,0,0,1,7.12-4.23,9.36,9.36,0,0,1,6.19.74Q380.21,53.58,383.18,58.16Z"/></svg>
